<?xml version="1.0" encoding="utf-8"?>
<!-- Generator: Adobe Illustrator 19.2.1, SVG Export Plug-In . SVG Version: 6.00 Build 0)  -->
<svg version="1.1" id="Layer_1" xmlns="http://www.w3.org/2000/svg" xmlns:xlink="http://www.w3.org/1999/xlink" x="0px" y="0px"
	 viewBox="0 0 235 200" style="enable-background:new 0 0 235 200;" xml:space="preserve">
<style type="text/css">
	.st0{fill:#FDFEFF;}
</style>
<path class="st0" d="M117.5,0.9c26.9,0,53.8,0,80.7,0c20.2,0,36.2,15.8,36.3,36c0.1,26.9,0.1,53.8,0,80.7
	c-0.1,19.8-15.6,35.5-35.4,36c-7,0.2-14,0-21.1,0c-5.9,0-5.9,0-5.9,5.7c0,11.2,0.1,22.4-0.1,33.6c0,2.4,1.3,5.5-1.8,6.8
	c-3.2,1.3-4.3-2-5.8-3.8c-11.2-13.1-22.3-26.2-33.3-39.4c-1.9-2.3-3.9-3.1-6.9-3.1c-29.3,0.1-58.6,0.2-87.9,0
	C18.1,153.4,4,141.3,0.8,123.2c-0.4-2.3-0.4-4.8-0.4-7.1c0-26,0-52,0-78c0-21.8,15.5-37.2,37.3-37.2C64.3,0.8,90.9,0.9,117.5,0.9z
	 M145,50.6c0.5-0.4,0.8-0.7,1.2-0.9c9.4-3.8,11.4-11.1,5.3-19.1c-16.7-22-48.9-26-70.3-8.8c-2.1,1.7-2.9,2.8-1.2,5.7
	c9,15.2,2.9,33.9-13.3,40.9c-3.2,1.4-3.3,3-2.5,5.7c4.1,13.2,11.8,23.3,23.9,30c1.3,0.7,2.6,1.5,4.2,2.3c-11.4,4.5-13.2,11.7-5.7,21
	c16.8,20.9,47.9,24.3,69.1,7.7c2.4-1.9,2.9-3.2,1.2-6.1c-8.7-15.1-2.7-33.5,13.2-40.6c3-1.3,3.6-2.6,2.7-5.7
	C168.5,67.9,159.1,57.4,145,50.6z M55.4,20.4c-12,0-21.7,9.5-21.8,21.5c-0.1,11.9,9.6,21.7,21.5,21.8c12.2,0.1,22-9.6,22-21.7
	C77.2,30.1,67.5,20.5,55.4,20.4z M181.9,136.4c12.1-0.1,21.5-9.6,21.5-21.7c0-12.1-9.5-21.6-21.6-21.6c-12.2,0-21.9,9.7-21.8,21.9
	C160.2,127,169.9,136.4,181.9,136.4z"/>
<path class="st0" d="M100.2,109c9,1.6,16.7,1.8,24.3-0.4c1.3-0.4,2.6-0.7,3.9-1.1c5.9-2.2,8.8-8,7-13.7c-1.8-5.7-7.5-9-13.5-7.4
	c-5.9,1.6-11.7,2.3-17.7,0.6c-12.1-3.5-19.9-14.5-19.6-27.3c0.3-12.3,8.8-22.8,21.1-25.8c12-2.9,24.1,2.4,30.3,13.6
	c-6.7-0.8-13.2-1.6-19.6-0.1c-2.5,0.6-5,1.1-7.4,1.9c-6.1,2.2-9,8-7.1,14c1.8,5.5,7.7,8.5,13.7,7c13.6-3.5,24.6-0.2,31.7,9.5
	c8.5,11.7,6.7,27.9-4.2,37.2c-11,9.5-27,8.8-37.4-1.5C104.1,113.8,102.7,111.9,100.2,109z"/>
</svg>
